<svg width="25" height="25" viewBox="0 0 25 25" fill="none" xmlns="http://www.w3.org/2000/svg">
<path d="M18.075 15.5166L19.5417 16.9833L16.9834 19.5416L15.5167 18.075C15.1334 18.2833 14.7334 18.45 14.3167 18.575V20.65H10.7V18.575C10.2834 18.45 9.87503 18.2833 9.50003 18.075L8.03337 19.5416L5.47503 16.9833L6.9417 15.525C6.73337 15.1333 6.5667 14.725 6.4417 14.3083H4.3667V10.6916H6.4417C6.5667 10.275 6.73337 9.86664 6.9417 9.49164L5.47503 8.02497L8.03337 5.46664L9.4917 6.93331H9.50003C9.88337 6.72497 10.2834 6.55831 10.7 6.43331V4.35831H14.3167V6.43331C14.7334 6.55831 15.1417 6.72497 15.5167 6.93331H15.525L16.9834 5.46664L19.5417 8.02497L18.075 9.49164C18.2834 9.87497 18.45 10.275 18.575 10.6916H20.65V14.3083H18.575C18.45 14.725 18.2834 15.1333 18.075 15.5083" stroke="#4D94C2" stroke-width="1.5" stroke-linecap="round" stroke-linejoin="round"/>
<path d="M12.4999 15.2166C14.0002 15.2166 15.2165 14.0003 15.2165 12.5C15.2165 10.9996 14.0002 9.78329 12.4999 9.78329C10.9995 9.78329 9.7832 10.9996 9.7832 12.5C9.7832 14.0003 10.9995 15.2166 12.4999 15.2166Z" stroke="#4D94C2" stroke-width="1.5" stroke-linecap="round" stroke-linejoin="round"/>
</svg>
