<svg width="30" height="30" viewBox="0 0 30 30" fill="none" xmlns="http://www.w3.org/2000/svg">
    <g>
    <path d="M23.6021 22.3037H6.39755C5.91471 22.3037 5.48269 22.0574 5.21585 21.6555C4.96172 21.2537 4.9236 20.7351 5.1142 20.2944L8.59578 14.6296C8.86261 14.1888 9.00238 13.6833 9.00238 13.1777V10.1055C9.00238 6.7481 11.6962 4.02588 14.9871 4.02588C18.2781 4.02588 20.9719 6.76106 20.9719 10.1314V13.1907C20.9719 13.7092 21.1117 14.2148 21.3912 14.6555L24.8474 20.2425C25.0888 20.774 25.0507 21.2796 24.7838 21.6814C24.517 22.0833 24.085 22.3296 23.6021 22.3296V22.3037ZM10.2857 10.0925V13.1648C10.2857 13.9296 10.0697 14.6685 9.67583 15.3037L6.24508 20.8907L6.41026 20.9944H23.6021L24.301 20.5407L23.7673 20.8907L20.3112 15.3037C19.9172 14.6555 19.7012 13.9166 19.7012 13.1518V10.0925C19.7012 7.4481 17.592 5.28329 14.9871 5.28329C12.3823 5.28329 10.2857 7.43514 10.273 10.0796L10.2857 10.0925Z" fill="#C0CDDC"/>
    <path d="M15.0001 25C13.2593 25 11.7599 23.6389 11.4168 21.7722C11.3533 21.4222 11.582 21.0851 11.9251 21.0203C12.2682 20.9555 12.5986 21.1889 12.6621 21.5389C12.8908 22.7963 13.8692 23.7037 14.9874 23.7037C16.1055 23.7037 17.0839 22.7963 17.3127 21.5389C17.3762 21.1889 17.7066 20.9555 18.0496 21.0203C18.3927 21.0851 18.6214 21.4222 18.5579 21.7722C18.2148 23.6389 16.7155 25 14.9747 25H15.0001Z" fill="#C0CDDC"/>
    </g>
</svg>
