<svg width="30" height="30" viewBox="0 0 30 30" fill="none" xmlns="http://www.w3.org/2000/svg">
    <path d="M23.0799 25.9C22.7599 25.9 22.4499 25.77 22.2299 25.52L19.9899 23C19.7699 23 19.5499 23.01 19.3099 23.01C14.8499 23.01 12.3799 21.84 11.5399 19.32C11.2899 18.56 11.1699 17.68 11.1699 16.48C11.1699 13.34 11.9799 10.39 17.8599 9.99995C18.3099 9.96995 18.7999 9.94995 19.3099 9.94995C26.0699 9.94995 27.4499 12.56 27.4499 16.48C27.4499 18.81 27.0499 21.11 24.2199 22.26V24.76C24.2199 25.24 23.9299 25.66 23.4899 25.83C23.3599 25.88 23.2199 25.91 23.0799 25.91V25.9ZM20.2499 21.79C20.4199 21.79 20.5799 21.86 20.6999 21.99L23.1299 24.72L23.0199 21.84C23.0199 21.58 23.1799 21.35 23.4299 21.27C25.7799 20.47 26.2599 18.84 26.2599 16.48C26.2599 13.57 25.7399 11.15 19.3199 11.15C18.8299 11.15 18.3699 11.17 17.9399 11.19C12.7899 11.53 12.3699 13.78 12.3699 16.47C12.3699 17.54 12.4599 18.29 12.6799 18.93C13.1299 20.26 14.2799 21.8 19.3099 21.8C19.6299 21.8 19.9299 21.8 20.2199 21.78H20.2499V21.79Z" fill="white"/>
    <path d="M14.04 19.47C13.76 19.47 13.51 19.28 13.45 19C13.38 18.68 13.59 18.36 13.91 18.29C17.02 17.63 17.63 15.94 17.63 13.25C17.63 12.98 17.63 12.72 17.61 12.46C17.59 12.13 17.84 11.85 18.17 11.83C18.5 11.8 18.78 12.06 18.8 12.39C18.82 12.67 18.82 12.96 18.82 13.25C18.82 15.96 18.25 18.58 14.15 19.46C14.11 19.46 14.07 19.47 14.02 19.47H14.04Z" fill="white"/>
    <path d="M6.9198 22.67C6.7798 22.67 6.64981 22.65 6.5098 22.59C6.0598 22.42 5.7798 22 5.7798 21.52V19.02C2.94981 17.87 2.5498 15.57 2.5498 13.24C2.5498 9.31996 3.9298 6.70996 10.6898 6.70996C15.1498 6.70996 17.6198 7.87996 18.4598 10.4C18.5598 10.71 18.3898 11.05 18.0798 11.16C17.7598 11.27 17.4298 11.1 17.3198 10.78C16.8698 9.44996 15.7198 7.90996 10.6798 7.90996C4.2598 7.90996 3.7398 10.32 3.7398 13.24C3.7398 15.61 4.20981 17.23 6.56981 18.03C6.8098 18.11 6.9798 18.34 6.9798 18.6V21.52L9.2998 18.75C9.4198 18.61 9.5998 18.55 9.7698 18.55C10.0098 18.56 10.2598 18.57 10.5198 18.57C10.8498 18.57 11.1198 18.84 11.1098 19.18C11.1098 19.51 10.8398 19.77 10.5098 19.77C10.3598 19.78 10.1698 19.77 9.9998 19.76L7.7598 22.28C7.5398 22.53 7.2298 22.66 6.9098 22.66L6.9198 22.67Z" fill="white"/>
</svg>
