<svg width="156" height="38" viewBox="0 0 156 38" fill="none" xmlns="http://www.w3.org/2000/svg">
<g clip-path="url(#clip0_209_684)">
<path d="M34.6257 24.7283L34.6097 19.9974L34.5968 15.2665L34.584 10.5356L30.4666 12.9123L30.4794 17.6432L30.4923 22.3741L30.5051 27.1082L26.3877 29.4848L26.3748 24.754L26.362 20.0199L26.3491 15.289L22.2317 17.6657L22.2445 22.3998L22.2574 27.1306L22.2702 31.8615L22.2831 36.5956L25.4274 34.7778L26.4005 34.2157L27.1906 33.7629L30.5212 31.839L34.6386 29.4624L34.6257 24.7283Z" fill="#0BA8A0"/>
<path d="M30.4762 8.13324L26.3844 5.75657L22.2927 3.37668L18.2009 1L14.0835 3.37668L9.96607 5.75657L5.84864 8.13324L1.7312 10.5099L5.82294 12.8866L9.94038 10.5099L14.0578 8.13324L18.1752 5.75657L22.267 8.13324L26.3587 10.5099L30.4505 12.8866L34.5679 10.5099L30.4762 8.13324Z" fill="#71E5CE"/>
<path d="M21.6213 10.8825C19.6943 9.77126 16.5693 9.77126 14.6551 10.8825C12.7409 11.9938 12.7505 13.8052 14.6776 14.9164C15.8306 15.5813 17.4075 15.8478 18.901 15.7194L22.2123 17.6432L26.3297 15.2665L23.012 13.3395C23.24 12.4723 22.7743 11.5506 21.6181 10.8825H21.6213ZM16.7009 13.741C15.898 13.2753 15.8948 12.5237 16.6913 12.058C17.491 11.5955 18.7918 11.5955 19.5947 12.058C20.3976 12.5205 20.4041 13.2753 19.6043 13.741C18.8078 14.2034 17.5039 14.2034 16.7009 13.741Z" fill="#71E5CE"/>
<path d="M14.0674 17.6657L9.94995 15.289L8.9768 14.7269L5.83252 12.9123L1.71508 10.5356L1.70223 15.2665L5.81967 17.6432L9.9371 20.0199L14.0545 22.3966L14.0417 27.1274L9.92426 24.7507L5.80682 22.3741L1.68939 19.9974L1.67654 24.7283L1.66691 28.152C0.668059 28.2965 0.00323132 29.1829 1.95939e-05 30.625C-0.00640386 32.8539 1.56734 35.5807 3.50723 36.7016C5.44711 37.8225 7.03049 36.92 7.03691 34.6878C7.04012 33.4417 6.55194 32.0414 5.78113 30.853L5.79076 27.1049L9.9082 29.4816L14.0256 31.8583L18.1431 34.235V33.0659L18.1463 29.4977V20.0167L14.0642 17.6593L14.0674 17.6657ZM3.51365 34.4598C2.64969 33.9588 1.94633 32.7447 1.94954 31.7523C1.94954 30.7567 2.65933 30.3552 3.52328 30.8562C4.38724 31.3541 5.09061 32.5713 5.0874 33.5669C5.0874 34.5594 4.3776 34.964 3.51365 34.463V34.4598Z" fill="#1BC9B7"/>
<path d="M49.149 9.79367C48.6544 9.79367 48.2112 9.71659 47.8193 9.56564C47.4275 9.41469 47.0935 9.18987 46.8237 8.8976C46.5507 8.60212 46.3419 8.24562 46.1974 7.82167C46.0529 7.39773 45.979 6.90954 45.979 6.36034C45.979 5.81113 46.0625 5.32295 46.2295 4.899C46.3965 4.47505 46.6278 4.11534 46.9168 3.82307C47.2091 3.52759 47.5495 3.30599 47.9414 3.15503C48.3332 3.00408 48.7539 2.927 49.2036 2.927C49.4766 2.927 49.7239 2.94627 49.9455 2.98802C50.1671 3.02978 50.3598 3.07474 50.5236 3.12613C50.6874 3.17752 50.8255 3.23212 50.9315 3.28672C51.0375 3.34131 51.1146 3.38628 51.1595 3.40876L50.8094 4.38513C50.6585 4.28877 50.4401 4.19885 50.1575 4.11534C49.8748 4.03184 49.5697 3.98687 49.2421 3.98687C48.9563 3.98687 48.6929 4.03505 48.4456 4.13461C48.1983 4.23417 47.9863 4.3787 47.8033 4.57462C47.6234 4.77053 47.4821 5.01784 47.3793 5.31653C47.2765 5.61522 47.2284 5.95887 47.2284 6.3507C47.2284 6.69757 47.2669 7.01874 47.3472 7.31101C47.4275 7.60328 47.5463 7.85379 47.7133 8.06576C47.8771 8.27774 48.0859 8.44154 48.3396 8.56037C48.5933 8.67599 48.8953 8.73702 49.2518 8.73702C49.6757 8.73702 50.0194 8.69526 50.2859 8.60855C50.5525 8.52183 50.7581 8.44154 50.9026 8.36767L51.2238 9.34403C51.1467 9.39542 51.0439 9.44681 50.9154 9.49498C50.787 9.54637 50.6328 9.59455 50.4562 9.64272C50.2795 9.6909 50.0804 9.72944 49.8588 9.75513C49.6372 9.78404 49.3995 9.79689 49.1458 9.79689L49.149 9.79367Z" fill="#0C8E8E"/>
<path d="M56.3369 3.07153H57.5317V9.65236H56.3369V6.73933H53.4785V9.65236H52.2837V3.07153H53.4785V5.70194H56.3369V3.07153Z" fill="#0C8E8E"/>
<path d="M63.4862 9.65229C63.3962 9.39214 63.3063 9.1352 63.2099 8.88468C63.1136 8.63096 63.0237 8.37081 62.9337 8.10745H60.1556C60.0657 8.37402 59.9757 8.63417 59.8826 8.89111C59.7895 9.14804 59.6995 9.40177 59.6128 9.6555H58.3699C58.6172 8.95213 58.8516 8.30336 59.0732 7.70919C59.2948 7.11502 59.51 6.54976 59.722 6.01982C59.934 5.48668 60.1427 4.98243 60.3515 4.50068C60.5603 4.01892 60.7755 3.54358 60.9971 3.07788H62.1372C62.3588 3.54679 62.574 4.02213 62.7828 4.50068C62.9915 4.97922 63.2035 5.48668 63.4155 6.01982C63.6275 6.55297 63.8459 7.11502 64.0707 7.70919C64.2955 8.30336 64.53 8.95213 64.7773 9.6555H63.4862V9.65229ZM61.5463 4.34651C61.4017 4.68053 61.2347 5.09163 61.0485 5.57018C60.8622 6.05194 60.6663 6.57224 60.4639 7.1375H62.6286C62.4263 6.57545 62.2304 6.04873 62.0409 5.56055C61.8514 5.07236 61.6876 4.66769 61.5463 4.34651Z" fill="#0C8E8E"/>
<path d="M70.038 9.65236C69.8228 9.29265 69.5819 8.90403 69.3153 8.48972C69.0488 8.0754 68.7758 7.65788 68.4899 7.23714C68.2041 6.81641 67.915 6.40852 67.6195 6.01347C67.3241 5.61843 67.0446 5.26193 66.7781 4.94397V9.65236H65.5994V3.07153H66.5757C66.8295 3.33811 67.0992 3.65286 67.3915 4.01578C67.6838 4.37871 67.976 4.75769 68.2683 5.14952C68.5638 5.54135 68.8464 5.93639 69.1226 6.33144C69.3988 6.72648 69.6429 7.09583 69.8581 7.43627V3.07153H71.0465V9.65236H70.0315H70.038Z" fill="#0C8E8E"/>
<path d="M77.0621 9.65236C76.847 9.29265 76.6061 8.90403 76.3395 8.48972C76.0729 8.0754 75.7967 7.65788 75.5141 7.23714C75.2282 6.81641 74.9392 6.40852 74.6437 6.01347C74.3482 5.61843 74.0688 5.26193 73.8022 4.94397V9.65236H72.6235V3.07153H73.5999C73.8536 3.33811 74.1266 3.65286 74.4157 4.01578C74.7047 4.37871 75.0002 4.75769 75.2925 5.14952C75.588 5.54135 75.8706 5.93639 76.1468 6.33144C76.423 6.72648 76.6671 7.09583 76.8823 7.43627V3.07153H78.0706V9.65236H77.0557H77.0621Z" fill="#0C8E8E"/>
<path d="M79.6541 9.65236V3.07153H83.8775V4.08644H80.8488V5.70836H83.5467V6.704H80.8488V8.63103H84.1055V9.64594H79.6541V9.65236Z" fill="#0C8E8E"/>
<path d="M89.3757 8.61819V9.65236H85.2166V3.07153H86.4113V8.61819H89.3725H89.3757Z" fill="#0C8E8E"/>
<path d="M51.6221 25.3257C51.6221 24.3397 51.4936 23.6396 51.2431 23.2285C50.9894 22.8174 50.5558 22.6118 49.9392 22.6118C49.7465 22.6118 49.5473 22.6215 49.3418 22.6439C49.1362 22.6632 48.9371 22.6889 48.7444 22.7146V31.0587H45.6804V20.6206C45.9406 20.5531 46.2457 20.4792 46.5958 20.4054C46.9458 20.3315 47.3152 20.2608 47.707 20.1998C48.0988 20.1388 48.4971 20.0906 48.9082 20.0553C49.3193 20.02 49.724 20.0039 50.1222 20.0039C50.9027 20.0039 51.5354 20.1035 52.0236 20.3026C52.5086 20.5017 52.91 20.7362 53.2248 21.0124C53.6648 20.6976 54.1658 20.4503 54.7343 20.2737C55.3028 20.097 55.8263 20.0071 56.308 20.0071C57.172 20.0071 57.8818 20.126 58.4342 20.3668C58.9898 20.6077 59.4298 20.9449 59.7606 21.3849C60.0882 21.825 60.3163 22.3453 60.4383 22.9458C60.5603 23.5497 60.6246 24.2209 60.6246 24.9596V31.0651H57.5606V25.3289C57.5606 24.3429 57.4321 23.6428 57.1816 23.2317C56.9279 22.8206 56.4943 22.615 55.8777 22.615C55.7139 22.615 55.4826 22.6568 55.1903 22.7371C54.8949 22.8206 54.6508 22.9234 54.4613 23.0454C54.5576 23.3602 54.6187 23.6942 54.6476 24.041C54.6733 24.3911 54.6893 24.7637 54.6893 25.1619V31.0619H51.6253V25.3257H51.6221Z" fill="#0C8E8E"/>
<path d="M65.9272 17.1261C65.9272 17.6881 65.7442 18.1313 65.3812 18.4525C65.0183 18.7737 64.5912 18.9343 64.0966 18.9343C63.602 18.9343 63.1748 18.7737 62.8119 18.4525C62.4489 18.1313 62.2659 17.6881 62.2659 17.1261C62.2659 16.564 62.4489 16.124 62.8119 15.7996C63.1748 15.4785 63.602 15.3179 64.0966 15.3179C64.5912 15.3179 65.0183 15.4785 65.3812 15.7996C65.7442 16.1208 65.9272 16.564 65.9272 17.1261ZM65.6382 31.0618H62.5742V20.2511H65.6382V31.0618Z" fill="#0C8E8E"/>
<path d="M77.6434 30.7117C77.3705 30.7952 77.0557 30.8722 76.6992 30.9493C76.3427 31.0264 75.9701 31.0906 75.5783 31.1452C75.1865 31.1998 74.7914 31.2448 74.3868 31.2801C73.9821 31.3155 73.5967 31.3315 73.2241 31.3315C72.3345 31.3315 71.538 31.1998 70.841 30.9397C70.1409 30.6795 69.5531 30.307 69.0746 29.8188C68.596 29.3338 68.2299 28.7429 67.9761 28.0524C67.7224 27.3618 67.5972 26.5814 67.5972 25.7206C67.5972 24.8599 67.7064 24.0538 67.9248 23.3472C68.1432 22.6406 68.4579 22.0432 68.8722 21.5486C69.2833 21.054 69.7876 20.6782 70.3817 20.4181C70.9791 20.1579 71.66 20.0262 72.4276 20.0262C72.8516 20.0262 73.2337 20.068 73.5678 20.1483C73.9018 20.2318 74.2422 20.3474 74.5859 20.4984V15.6069L77.6499 15.1123V30.7149L77.6434 30.7117ZM70.7158 25.5729C70.7158 26.5171 70.9277 27.2783 71.3517 27.8532C71.7756 28.4281 72.4083 28.7172 73.2434 28.7172C73.5164 28.7172 73.7701 28.7075 74.0046 28.6851C74.2358 28.6658 74.4285 28.6401 74.5795 28.6144V23.0453C74.3868 22.9232 74.1362 22.8204 73.8279 22.7369C73.5196 22.6534 73.2081 22.6149 72.8933 22.6149C71.4416 22.6149 70.7158 23.6009 70.7158 25.5761V25.5729Z" fill="#0C8E8E"/>
<path d="M89.6491 30.7117C89.3761 30.7952 89.0613 30.8722 88.7048 30.9493C88.3483 31.0264 87.9758 31.0906 87.5839 31.1452C87.1921 31.1998 86.797 31.2448 86.3924 31.2801C85.9877 31.3155 85.6023 31.3315 85.2297 31.3315C84.3401 31.3315 83.5436 31.1998 82.8466 30.9397C82.1465 30.6795 81.5587 30.307 81.0802 29.8188C80.6016 29.3338 80.2355 28.7429 79.9818 28.0524C79.728 27.3618 79.6028 26.5814 79.6028 25.7206C79.6028 24.8599 79.712 24.0538 79.9304 23.3472C80.1488 22.6406 80.4635 22.0432 80.8778 21.5486C81.2889 21.054 81.7932 20.6782 82.3873 20.4181C82.9847 20.1579 83.6656 20.0262 84.4332 20.0262C84.8572 20.0262 85.2394 20.068 85.5734 20.1483C85.9074 20.2318 86.2478 20.3474 86.5915 20.4984V15.6069L89.6555 15.1123V30.7149L89.6491 30.7117ZM82.7214 25.5729C82.7214 26.5171 82.9333 27.2783 83.3573 27.8532C83.7812 28.4281 84.4139 28.7172 85.249 28.7172C85.522 28.7172 85.7757 28.7075 86.0102 28.6851C86.2414 28.6658 86.4341 28.6401 86.5851 28.6144V23.0453C86.3924 22.9232 86.1419 22.8204 85.8335 22.7369C85.5252 22.6534 85.2137 22.6149 84.8989 22.6149C83.4472 22.6149 82.7214 23.6009 82.7214 25.5761V25.5729Z" fill="#0C8E8E"/>
<path d="M96.432 31.2673C95.5424 31.2545 94.8198 31.1581 94.2641 30.9783C93.7085 30.8016 93.2717 30.5511 92.9473 30.2267C92.6229 29.9023 92.4045 29.5137 92.2889 29.0544C92.1733 28.5952 92.1155 28.0781 92.1155 27.5032V15.6037L95.1795 15.1091V26.8865C95.1795 27.1595 95.1987 27.4068 95.2405 27.6252C95.2822 27.8436 95.3593 28.0299 95.4782 28.1809C95.5938 28.3318 95.7608 28.4539 95.9824 28.5502C96.2008 28.6466 96.4963 28.7076 96.8656 28.7365L96.4353 31.2641L96.432 31.2673Z" fill="#0C8E8E"/>
<path d="M98.0957 25.74C98.0957 24.7797 98.2434 23.9415 98.5389 23.222C98.8344 22.5026 99.2198 21.902 99.7016 21.4235C100.183 20.9449 100.733 20.582 101.356 20.3347C101.979 20.0874 102.621 19.9653 103.276 19.9653C104.811 19.9653 106.022 20.4342 106.915 21.3721C107.805 22.3099 108.251 23.6909 108.251 25.5152C108.251 25.6918 108.245 25.8878 108.232 26.0997C108.219 26.3117 108.203 26.5012 108.19 26.665H101.243C101.311 27.2945 101.606 27.7955 102.126 28.1649C102.647 28.5342 103.347 28.7205 104.224 28.7205C104.786 28.7205 105.335 28.6691 105.878 28.5663C106.417 28.4636 106.861 28.3383 107.204 28.1874L107.615 30.6732C107.451 30.7567 107.23 30.837 106.957 30.9205C106.684 31.004 106.379 31.0747 106.042 31.1357C105.704 31.1967 105.345 31.2481 104.962 31.2899C104.58 31.3316 104.195 31.3509 103.813 31.3509C102.839 31.3509 101.995 31.2064 101.275 30.9205C100.556 30.6315 99.9585 30.2396 99.4864 29.7386C99.0143 29.2376 98.6642 28.6466 98.4394 27.9593C98.2145 27.2752 98.0989 26.5333 98.0989 25.74H98.0957ZM105.29 24.5677C105.277 24.3076 105.232 24.0539 105.155 23.8066C105.078 23.5593 104.962 23.3409 104.805 23.1482C104.648 22.9554 104.448 22.7981 104.208 22.676C103.967 22.554 103.671 22.4898 103.315 22.4898C102.958 22.4898 102.679 22.5476 102.432 22.6632C102.184 22.7788 101.979 22.933 101.815 23.1257C101.651 23.3184 101.523 23.54 101.436 23.7937C101.346 24.0474 101.282 24.3044 101.24 24.5645H105.29V24.5677Z" fill="#0C8E8E"/>
<path d="M117.202 24.8535C116.929 25.8941 116.637 26.9282 116.329 27.956C116.02 28.9837 115.696 30.0179 115.352 31.0585H112.969C112.722 30.4836 112.455 29.7995 112.166 29.003C111.877 28.2097 111.579 27.3425 111.27 26.4015C110.962 25.4637 110.644 24.468 110.323 23.421C110.002 22.374 109.687 21.3141 109.385 20.2446H112.613C112.722 20.7392 112.844 21.2756 112.976 21.8569C113.107 22.4382 113.246 23.0388 113.39 23.6555C113.535 24.2721 113.686 24.892 113.846 25.5151C114.003 26.1381 114.167 26.7387 114.331 27.3136C114.508 26.7098 114.684 26.0932 114.855 25.4637C115.025 24.8342 115.189 24.2143 115.349 23.6041C115.507 22.9939 115.658 22.4061 115.802 21.8376C115.947 21.2692 116.072 20.7392 116.181 20.2446H118.4C118.51 20.7392 118.635 21.2692 118.77 21.8376C118.908 22.4061 119.049 22.9971 119.2 23.6041C119.351 24.2143 119.508 24.8342 119.672 25.4637C119.836 26.0932 120.006 26.7098 120.186 27.3136C120.353 26.7387 120.517 26.1381 120.681 25.5151C120.844 24.892 121.002 24.2721 121.146 23.6555C121.291 23.0388 121.429 22.4382 121.561 21.8569C121.692 21.2756 121.811 20.736 121.924 20.2446H125.11C124.808 21.3141 124.493 22.3708 124.172 23.421C123.847 24.468 123.533 25.4637 123.224 26.4015C122.916 27.3393 122.614 28.2065 122.319 29.003C122.023 29.7995 121.753 30.4836 121.503 31.0585H119.12C118.776 30.0179 118.442 28.9837 118.111 27.956C117.78 26.9282 117.482 25.8941 117.206 24.8535H117.202Z" fill="#0C8E8E"/>
<path d="M130.409 19.9622C131.315 19.9622 132.066 20.0649 132.67 20.2705C133.274 20.476 133.756 20.7715 134.119 21.1537C134.482 21.5391 134.738 22.0048 134.889 22.5508C135.04 23.1 135.114 23.7102 135.114 24.3815V30.7536C134.674 30.8499 134.067 30.9623 133.284 31.094C132.503 31.2257 131.556 31.2899 130.448 31.2899C129.747 31.2899 129.115 31.2289 128.546 31.1036C127.978 30.9816 127.486 30.7793 127.075 30.4966C126.664 30.2172 126.349 29.8479 126.131 29.3982C125.913 28.9454 125.803 28.3897 125.803 27.7345C125.803 27.0793 125.929 26.5687 126.182 26.1319C126.436 25.6919 126.777 25.345 127.201 25.0849C127.625 24.8247 128.113 24.6352 128.659 24.5196C129.208 24.404 129.776 24.3462 130.364 24.3462C130.762 24.3462 131.116 24.3622 131.421 24.3976C131.729 24.4329 131.98 24.4778 132.172 24.5324V24.2434C132.172 23.7231 132.015 23.3056 131.7 22.9908C131.385 22.6761 130.836 22.5187 130.056 22.5187C129.535 22.5187 129.022 22.5572 128.514 22.6311C128.007 22.7082 127.57 22.8142 127.197 22.9491L126.809 20.4825C126.985 20.4279 127.21 20.37 127.477 20.309C127.743 20.248 128.036 20.1934 128.35 20.1452C128.665 20.0971 128.999 20.0553 129.346 20.0232C129.696 19.9879 130.049 19.9718 130.406 19.9718L130.409 19.9622ZM130.656 28.9229C130.958 28.9229 131.244 28.9165 131.52 28.9036C131.793 28.8908 132.015 28.8683 132.179 28.8426V26.5205C132.057 26.4948 131.87 26.4659 131.623 26.437C131.376 26.4113 131.151 26.3952 130.945 26.3952C130.656 26.3952 130.387 26.4113 130.133 26.4466C129.879 26.482 129.658 26.5462 129.465 26.6425C129.272 26.7389 129.121 26.8674 129.012 27.0344C128.903 27.1982 128.848 27.4037 128.848 27.651C128.848 28.1296 129.009 28.4636 129.33 28.6467C129.651 28.8329 130.094 28.9229 130.656 28.9229Z" fill="#0C8E8E"/>
<path d="M144.406 22.9651C144.133 22.8977 143.808 22.8238 143.439 22.7499C143.07 22.676 142.671 22.6375 142.247 22.6375C142.055 22.6375 141.827 22.6536 141.56 22.6889C141.294 22.7242 141.091 22.7595 140.953 22.8013V31.0651H137.889V20.8293C138.438 20.6366 139.084 20.4567 139.832 20.2833C140.581 20.1131 141.412 20.0264 142.331 20.0264C142.495 20.0264 142.694 20.036 142.928 20.0585C143.16 20.0778 143.394 20.1067 143.629 20.142C143.86 20.1773 144.094 20.2191 144.329 20.264C144.56 20.3122 144.759 20.37 144.926 20.4375L144.412 22.9651H144.406Z" fill="#0C8E8E"/>
<path d="M145.844 25.74C145.844 24.7797 145.992 23.9415 146.288 23.222C146.583 22.5026 146.969 21.902 147.45 21.4235C147.932 20.9449 148.481 20.582 149.104 20.3347C149.727 20.0874 150.37 19.9653 151.025 19.9653C152.56 19.9653 153.771 20.4342 154.664 21.3721C155.554 22.3099 156 23.6909 156 25.5152C156 25.6918 155.994 25.8878 155.981 26.0997C155.968 26.3117 155.952 26.5012 155.939 26.665H148.992C149.059 27.2945 149.355 27.7955 149.875 28.1649C150.395 28.5342 151.096 28.7205 151.972 28.7205C152.535 28.7205 153.084 28.6691 153.626 28.5663C154.166 28.4636 154.609 28.3383 154.953 28.1874L155.364 30.6732C155.2 30.7567 154.979 30.837 154.706 30.9205C154.433 31.004 154.128 31.0747 153.79 31.1357C153.453 31.1967 153.093 31.2481 152.711 31.2899C152.329 31.3316 151.944 31.3509 151.561 31.3509C150.588 31.3509 149.744 31.2064 149.024 30.9205C148.305 30.6315 147.707 30.2396 147.235 29.7386C146.763 29.2376 146.413 28.6466 146.188 27.9593C145.963 27.2752 145.848 26.5333 145.848 25.74H145.844ZM153.039 24.5677C153.026 24.3076 152.981 24.0539 152.904 23.8066C152.827 23.5593 152.711 23.3409 152.554 23.1482C152.396 22.9554 152.197 22.7981 151.956 22.676C151.716 22.554 151.42 22.4898 151.064 22.4898C150.707 22.4898 150.428 22.5476 150.18 22.6632C149.933 22.7788 149.727 22.933 149.564 23.1257C149.4 23.3184 149.271 23.54 149.185 23.7937C149.095 24.0474 149.031 24.3044 148.989 24.5645H153.039V24.5677Z" fill="#0C8E8E"/>
</g>
<defs>
<clipPath id="clip0_209_684">
<rect width="156" height="38" fill="white"/>
</clipPath>
</defs>
</svg>
