<svg width="40" height="40" viewBox="0 0 40 40" fill="none" xmlns="http://www.w3.org/2000/svg">
    <g>
        <path d="M20 40C31.0457 40 40 31.0457 40 20C40 8.9543 31.0457 0 20 0C8.9543 0 0 8.9543 0 20C0 31.0457 8.9543 40 20 40Z" fill="#EAEAEA"/>
        <path d="M28.8701 34.4799V31.7499C28.8701 26.2499 24.7501 24.9299 21.7701 24.9299H18.2201C15.2501 24.9299 11.1201 26.2499 11.1201 31.7499V34.4799" stroke="#777777" stroke-width="2" stroke-linecap="round" stroke-linejoin="round"/>
        <path d="M20.0002 9.90991C17.4602 9.90991 15.2202 11.7099 15.2202 14.2799V16.4599C15.2202 19.0199 17.4602 20.8299 20.0002 20.8299C22.5402 20.8299 24.7802 19.0299 24.7802 16.4599V14.2799C24.7802 11.7199 22.5402 9.90991 20.0002 9.90991Z" stroke="#777777" stroke-width="2" stroke-linecap="round" stroke-linejoin="round"/>
    </g>
</svg>
