<svg width="23" height="30" viewBox="0 0 23 30" fill="none" xmlns="http://www.w3.org/2000/svg">
    <g>
    <path d="M19.7164 30H3.28358C1.47761 30 0 28.5377 0 26.7504V5.4801C0 3.6928 1.47761 2.23047 3.28358 2.23047H8.34328C8.76119 2.23047 9.08955 2.55543 9.08955 2.96902C9.08955 3.38261 8.76119 3.70757 8.34328 3.70757H3.28358C2.29851 3.70757 1.49254 4.50521 1.49254 5.4801V26.7504C1.49254 27.7253 2.29851 28.5229 3.28358 28.5229H19.7164C20.7015 28.5229 21.5075 27.7253 21.5075 26.7504V5.4801C21.5075 4.50521 20.7015 3.70757 19.7164 3.70757H14.6567C14.2388 3.70757 13.9104 3.38261 13.9104 2.96902C13.9104 2.55543 14.2388 2.23047 14.6567 2.23047H19.7164C21.5224 2.23047 23 3.6928 23 5.4801V26.7504C23 28.5377 21.5224 30 19.7164 30Z" fill="#C0CDDC"/>
    <path d="M13.3584 5.93796H9.64194C8.50762 5.93796 7.59717 5.02216 7.59717 3.91433V2.02363C7.59717 0.901034 8.52254 0 9.64194 0H13.3584C14.4927 0 15.4031 0.915805 15.4031 2.02363V3.91433C15.4031 5.03693 14.4778 5.93796 13.3584 5.93796V5.93796ZM9.64194 1.4771C9.34344 1.4771 9.08971 1.72821 9.08971 2.02363V3.91433C9.08971 4.20975 9.34344 4.46086 9.64194 4.46086H13.3584C13.6569 4.46086 13.9106 4.20975 13.9106 3.91433V2.02363C13.9106 1.72821 13.6569 1.4771 13.3584 1.4771H9.64194V1.4771Z" fill="#C0CDDC"/>
    <path d="M14.0002 24.2095H5.41814C5.00023 24.2095 4.67188 23.8846 4.67188 23.471C4.67188 23.0574 5.00023 22.7324 5.41814 22.7324H14.0002C14.4181 22.7324 14.7465 23.0574 14.7465 23.471C14.7465 23.8846 14.4181 24.2095 14.0002 24.2095V24.2095Z" fill="#C0CDDC"/>
    <path d="M17.1645 24.6231C16.5227 24.6231 15.9854 24.1061 15.9854 23.4562C15.9854 22.8063 16.5077 22.2893 17.1645 22.2893C17.8212 22.2893 18.3436 22.8063 18.3436 23.4562C18.3436 24.1061 17.8212 24.6231 17.1645 24.6231ZM17.1645 23.146C16.9854 23.146 16.851 23.2937 16.851 23.4562C16.851 23.8107 17.4928 23.8107 17.4928 23.4562C17.4928 23.279 17.3436 23.146 17.1794 23.146H17.1645Z" fill="#C0CDDC"/>
    <path d="M14.0002 19.9112H5.41814C5.00023 19.9112 4.67188 19.5862 4.67188 19.1726C4.67188 18.759 5.00023 18.4341 5.41814 18.4341H14.0002C14.4181 18.4341 14.7465 18.759 14.7465 19.1726C14.7465 19.5862 14.4181 19.9112 14.0002 19.9112V19.9112Z" fill="#C0CDDC"/>
    <path d="M17.1645 20.3248C16.5227 20.3248 15.9854 19.8078 15.9854 19.1579C15.9854 18.508 16.5077 17.991 17.1645 17.991C17.8212 17.991 18.3436 18.508 18.3436 19.1579C18.3436 19.8078 17.8212 20.3248 17.1645 20.3248V20.3248ZM17.1645 18.8477C16.9854 18.8477 16.851 18.9954 16.851 19.1579C16.851 19.5124 17.4928 19.5124 17.4928 19.1579C17.4928 18.9806 17.3436 18.8477 17.1794 18.8477H17.1645Z" fill="#C0CDDC"/>
    <path d="M14.0002 15.5982H5.41814C5.00023 15.5982 4.67188 15.2732 4.67188 14.8596C4.67188 14.4461 5.00023 14.1211 5.41814 14.1211H14.0002C14.4181 14.1211 14.7465 14.4461 14.7465 14.8596C14.7465 15.2732 14.4181 15.5982 14.0002 15.5982V15.5982Z" fill="#C0CDDC"/>
    <path d="M17.1645 16.0265C16.5227 16.0265 15.9854 15.5095 15.9854 14.8595C15.9854 14.2096 16.5077 13.6926 17.1645 13.6926C17.8212 13.6926 18.3436 14.2096 18.3436 14.8595C18.3436 15.5095 17.8212 16.0265 17.1645 16.0265V16.0265ZM17.1645 14.5493C16.9854 14.5493 16.851 14.6971 16.851 14.8595C16.851 15.214 17.4928 15.214 17.4928 14.8595C17.4928 14.6823 17.3436 14.5493 17.1794 14.5493H17.1645Z" fill="#C0CDDC"/>
    <path d="M14.0002 11.2999H5.41814C5.00023 11.2999 4.67188 10.9749 4.67188 10.5613C4.67188 10.1477 5.00023 9.82275 5.41814 9.82275H14.0002C14.4181 9.82275 14.7465 10.1477 14.7465 10.5613C14.7465 10.9749 14.4181 11.2999 14.0002 11.2999V11.2999Z" fill="#C0CDDC"/>
    <path d="M17.1645 11.7281C16.5227 11.7281 15.9854 11.2111 15.9854 10.5612C15.9854 9.91127 16.5077 9.39429 17.1645 9.39429C17.8212 9.39429 18.3436 9.91127 18.3436 10.5612C18.3436 11.2111 17.8212 11.7281 17.1645 11.7281ZM17.1645 10.251C16.9854 10.251 16.851 10.3987 16.851 10.5612C16.851 10.9157 17.4928 10.9157 17.4928 10.5612C17.4928 10.3839 17.3436 10.251 17.1794 10.251H17.1645Z" fill="#C0CDDC"/>
    </g>
</svg>
