<svg width="34" height="34" viewBox="0 0 34 34" xmlns="http://www.w3.org/2000/svg">
    <defs>
        <filter x="-46.1%" y="-39.8%" width="192.1%" height="179.5%" filterUnits="objectBoundingBox" id="cabyjsdlva">
            <feOffset dy="1" in="SourceAlpha" result="shadowOffsetOuter1"/>
            <feGaussianBlur stdDeviation="1.5" in="shadowOffsetOuter1" result="shadowBlurOuter1"/>
            <feColorMatrix values="0 0 0 0 0 0 0 0 0 0 0 0 0 0 0 0 0 0 0.1 0" in="shadowBlurOuter1" result="shadowMatrixOuter1"/>
            <feMerge>
                <feMergeNode in="shadowMatrixOuter1"/>
                <feMergeNode in="SourceGraphic"/>
            </feMerge>
        </filter>
    </defs>
    <g filter="url(#cabyjsdlva)" transform="translate(7.5 6)" fill="none" fill-rule="evenodd">
        <path d="M9.168.1C5.618 2.58 1.821 3.207.492 3.358A.55.55 0 0 0 0 3.906v6.882a8.813 8.813 0 0 0 3.562 7.066l5.265 3.923c.398.297.947.297 1.345 0l5.265-3.923A8.815 8.815 0 0 0 19 10.788V3.905a.546.546 0 0 0-.49-.547c-1.387-.155-5.45-.799-8.69-3.246A.553.553 0 0 0 9.168.1" fill="#A8C7FF"/>
        <path d="M9.168.1C5.618 2.58 1.821 3.207.492 3.358A.55.55 0 0 0 0 3.906v6.882a8.813 8.813 0 0 0 3.562 7.066l5.265 3.923c.398.297.947.297 1.345 0l5.265-3.923A8.815 8.815 0 0 0 19 10.788V3.905a.546.546 0 0 0-.49-.547c-1.387-.155-5.45-.799-8.69-3.246A.553.553 0 0 0 9.168.1z" stroke="#4C8CFF" stroke-width="1.5" stroke-linejoin="round"/>
        <path d="M11.5 9a2 2 0 1 1-3.999.001A2 2 0 0 1 11.5 9" fill="#FFF"/>
        <path d="M9.5 15c-.552 0-1-.538-1-1.2v-3.6c0-.662.448-1.2 1-1.2s1 .538 1 1.2v3.6c0 .662-.448 1.2-1 1.2" fill="#FFF"/>
    </g>
</svg>
