<svg width="144" height="34" viewBox="0 0 144 34" fill="none" xmlns="http://www.w3.org/2000/svg">
<path d="M31.9621 22.2964L31.9473 17.851L31.9355 13.4056L31.9236 8.96021L28.1229 11.1935L28.1348 15.6389L28.1466 20.0843L28.1585 24.5327L24.3578 26.766L24.3459 22.3206L24.3341 17.8722L24.3222 13.4267L20.5215 15.66L20.5333 20.1084L20.5452 24.5538L20.5571 28.9993L20.5689 33.4477L23.4713 31.7395L24.3696 31.2114L25.0989 30.7859L28.1733 28.9781L31.974 26.7449L31.9621 22.2964Z" fill="white"/>
<path d="M28.1318 6.70282L24.3548 4.46955L20.5778 2.23327L16.8009 0L13.0001 2.23327L9.19944 4.46955L5.39873 6.70282L1.59802 8.93609L5.37501 11.1694L9.17572 8.93609L12.9764 6.70282L16.7771 4.46955L20.5541 6.70282L24.3311 8.93609L28.1081 11.1694L31.9088 8.93609L28.1318 6.70282Z" fill="white"/>
<path d="M19.9582 9.28608C18.1794 8.24188 15.2947 8.24188 13.5278 9.28608C11.7609 10.3303 11.7697 12.0324 13.5486 13.0766C14.6129 13.7013 16.0685 13.9518 17.4471 13.8311L20.5037 15.6388L24.3044 13.4056L21.2419 11.5948C21.4524 10.78 21.0225 9.91381 19.9552 9.28608H19.9582ZM15.4163 11.972C14.6751 11.5344 14.6722 10.8282 15.4074 10.3906C16.1456 9.95606 17.3463 9.95606 18.0875 10.3906C18.8286 10.8252 18.8346 11.5344 18.0964 11.972C17.3611 12.4066 16.1575 12.4066 15.4163 11.972Z" fill="white"/>
<path d="M12.9853 15.66L9.18457 13.4267L8.28627 12.8986L5.38386 11.1935L1.58315 8.96021L1.57129 13.4056L5.372 15.6389L9.17271 17.8722L12.9734 20.1054L12.9616 24.5508L9.16085 22.3176L5.36014 20.0843L1.55944 17.851L1.54758 22.2964L1.53868 25.5136C0.61667 25.6494 0.00298276 26.4823 1.80867e-05 27.8374C-0.00591126 29.9318 1.44678 32.494 3.23744 33.5473C5.0281 34.6005 6.48968 33.7525 6.49561 31.655C6.49858 30.4841 6.04795 29.1683 5.33643 28.0516L5.34532 24.5297L9.14603 26.763L12.9467 28.9962L16.7474 31.2295V30.131L16.7504 26.7781V17.8691L12.9823 15.654L12.9853 15.66ZM3.24337 31.4408C2.44587 30.97 1.79661 29.8292 1.79957 28.8967C1.79957 27.9611 2.45477 27.5839 3.25226 28.0546C4.04976 28.5224 4.69902 29.6662 4.69606 30.6018C4.69606 31.5343 4.04086 31.9146 3.24337 31.4438V31.4408Z" fill="white"/>
<path d="M45.3684 8.26313C44.9118 8.26313 44.5027 8.1907 44.141 8.04885C43.7793 7.90701 43.471 7.69575 43.222 7.42112C42.97 7.14347 42.7773 6.80848 42.6439 6.41012C42.5104 6.01175 42.4423 5.55302 42.4423 5.03696C42.4423 4.52089 42.5193 4.06217 42.6735 3.6638C42.8277 3.26543 43.0411 2.92743 43.3079 2.65279C43.5777 2.37514 43.892 2.16691 44.2537 2.02506C44.6154 1.88322 45.0037 1.81079 45.4188 1.81079C45.6708 1.81079 45.8991 1.8289 46.1036 1.86813C46.3082 1.90736 46.4861 1.94962 46.6373 1.9979C46.7885 2.04619 46.9159 2.09749 47.0138 2.1488C47.1116 2.2001 47.1828 2.24236 47.2243 2.26348L46.9011 3.18093C46.7618 3.09039 46.5602 3.00589 46.2993 2.92743C46.0384 2.84896 45.7568 2.80671 45.4544 2.80671C45.1905 2.80671 44.9474 2.85198 44.7191 2.94553C44.4908 3.03909 44.2952 3.1749 44.1262 3.35899C43.9602 3.54308 43.8297 3.77546 43.7349 4.05613C43.64 4.3368 43.5955 4.65972 43.5955 5.0279C43.5955 5.35384 43.6311 5.65563 43.7052 5.93027C43.7793 6.2049 43.889 6.4403 44.0432 6.63948C44.1944 6.83866 44.3871 6.99258 44.6213 7.10424C44.8555 7.21289 45.1342 7.27023 45.4633 7.27023C45.8546 7.27023 46.1718 7.23099 46.4179 7.14951C46.664 7.06803 46.8537 6.99258 46.9871 6.92316L47.2836 7.84062C47.2124 7.8889 47.1175 7.93719 46.999 7.98246C46.8804 8.03075 46.7381 8.07601 46.575 8.12128C46.412 8.16655 46.2281 8.20277 46.0236 8.22691C45.819 8.25407 45.5996 8.26614 45.3654 8.26614L45.3684 8.26313Z" fill="white"/>
<path d="M52.0034 1.94653H53.1062V8.13027H52.0034V5.39301H49.3648V8.13027H48.262V1.94653H49.3648V4.41822H52.0034V1.94653Z" fill="white"/>
<path d="M58.6027 8.13034C58.5197 7.88589 58.4367 7.64445 58.3478 7.40905C58.2588 7.17064 58.1758 6.92619 58.0928 6.67871H55.5284C55.4454 6.9292 55.3623 7.17366 55.2764 7.41509C55.1904 7.65652 55.1074 7.89494 55.0273 8.13336H53.88C54.1083 7.47243 54.3247 6.86281 54.5293 6.30449C54.7338 5.74617 54.9325 5.21502 55.1281 4.71706C55.3238 4.21608 55.5165 3.74227 55.7092 3.28958C55.9019 2.83689 56.1005 2.39024 56.3051 1.95264H57.3576C57.5621 2.39325 57.7608 2.83991 57.9535 3.28958C58.1462 3.73925 58.3418 4.21608 58.5375 4.71706C58.7332 5.21804 58.9348 5.74617 59.1423 6.30449C59.3498 6.86281 59.5662 7.47243 59.7945 8.13336H58.6027V8.13034ZM56.8121 3.14472C56.6787 3.45858 56.5245 3.84488 56.3525 4.29455C56.1806 4.74724 55.9997 5.23614 55.813 5.7673H57.8112C57.6244 5.23916 57.4435 4.74422 57.2686 4.2855C57.0937 3.82677 56.9425 3.44651 56.8121 3.14472Z" fill="white"/>
<path d="M64.6506 8.13027C64.452 7.79226 64.2297 7.42709 63.9836 7.03778C63.7375 6.64847 63.4855 6.25614 63.2217 5.86079C62.9578 5.46544 62.691 5.08216 62.4182 4.71096C62.1455 4.33975 61.8876 4.00476 61.6415 3.70599V8.13027H60.5535V1.94653H61.4547C61.6889 2.19702 61.938 2.49278 62.2078 2.8338C62.4775 3.17483 62.7473 3.53095 63.0171 3.89913C63.2899 4.26732 63.5507 4.63853 63.8057 5.00973C64.0607 5.38094 64.286 5.728 64.4846 6.0479V1.94653H65.5816V8.13027H64.6447H64.6506Z" fill="white"/>
<path d="M71.1343 8.13027C70.9357 7.79226 70.7133 7.42709 70.4672 7.03778C70.2212 6.64847 69.9662 6.25614 69.7053 5.86079C69.4415 5.46544 69.1746 5.08216 68.9019 4.71096C68.6291 4.33975 68.3712 4.00476 68.1251 3.70599V8.13027H67.0371V1.94653H67.9384C68.1726 2.19702 68.4246 2.49278 68.6914 2.8338C68.9582 3.17483 69.231 3.53095 69.5008 3.89913C69.7735 4.26732 70.0344 4.63853 70.2894 5.00973C70.5443 5.38094 70.7696 5.728 70.9683 6.0479V1.94653H72.0652V8.13027H71.1284H71.1343Z" fill="white"/>
<path d="M73.5269 8.13027V1.94653H77.4254V2.9002H74.6297V4.42425H77.12V5.35981H74.6297V7.17057H77.6359V8.12424H73.5269V8.13027Z" fill="white"/>
<path d="M82.5009 7.1585V8.13027H78.6616V1.94653H79.7645V7.1585H82.4979H82.5009Z" fill="white"/>
<path d="M47.6511 22.8579C47.6511 21.9314 47.5326 21.2735 47.3013 20.8872C47.0671 20.5009 46.6669 20.3077 46.0977 20.3077C45.9198 20.3077 45.736 20.3168 45.5462 20.3379C45.3565 20.356 45.1727 20.3802 44.9948 20.4043V28.2449H42.1665V18.4366C42.4066 18.3732 42.6883 18.3038 43.0114 18.2344C43.3346 18.165 43.6755 18.0986 44.0372 18.0413C44.3989 17.9839 44.7665 17.9387 45.146 17.9055C45.5255 17.8723 45.899 17.8572 46.2666 17.8572C46.9871 17.8572 47.5711 17.9507 48.0217 18.1378C48.4694 18.325 48.84 18.5453 49.1305 18.8048C49.5367 18.5091 49.9992 18.2767 50.5239 18.1107C51.0487 17.9447 51.5319 17.8602 51.9766 17.8602C52.7741 17.8602 53.4293 17.9719 53.9392 18.1982C54.4521 18.4245 54.8583 18.7414 55.1636 19.1549C55.466 19.5683 55.6765 20.0572 55.7892 20.6216C55.9018 21.189 55.9611 21.8197 55.9611 22.5138V28.2509H53.1328V22.8609C53.1328 21.9344 53.0142 21.2765 52.783 20.8902C52.5488 20.5039 52.1486 20.3108 51.5793 20.3108C51.4281 20.3108 51.2147 20.35 50.9449 20.4254C50.6721 20.5039 50.4468 20.6005 50.2719 20.7152C50.3609 21.0109 50.4172 21.3248 50.4439 21.6507C50.4676 21.9797 50.4824 22.3298 50.4824 22.704V28.2479H47.6541V22.8579H47.6511Z" fill="white"/>
<path d="M60.8558 15.153C60.8558 15.6811 60.6868 16.0976 60.3518 16.3994C60.0168 16.7011 59.6225 16.852 59.1659 16.852C58.7094 16.852 58.3151 16.7011 57.9801 16.3994C57.6451 16.0976 57.4761 15.6811 57.4761 15.153C57.4761 14.6248 57.6451 14.2114 57.9801 13.9065C58.3151 13.6048 58.7094 13.4539 59.1659 13.4539C59.6225 13.4539 60.0168 13.6048 60.3518 13.9065C60.6868 14.2083 60.8558 14.6248 60.8558 15.153ZM60.589 28.2477H57.7607V18.0894H60.589V28.2477Z" fill="white"/>
<path d="M71.671 27.9188C71.419 27.9973 71.1284 28.0697 70.7993 28.1422C70.4703 28.2146 70.1264 28.2749 69.7647 28.3262C69.403 28.3776 69.0383 28.4198 68.6648 28.453C68.2912 28.4862 67.9355 28.5013 67.5916 28.5013C66.7704 28.5013 66.0351 28.3776 65.3918 28.1331C64.7455 27.8886 64.2029 27.5386 63.7612 27.0798C63.3195 26.6241 62.9815 26.0688 62.7473 25.42C62.5131 24.7711 62.3975 24.0378 62.3975 23.229C62.3975 22.4202 62.4983 21.6627 62.6999 20.9987C62.9015 20.3348 63.192 19.7734 63.5744 19.3087C63.9539 18.8439 64.4194 18.4908 64.9678 18.2464C65.5193 18.0019 66.1478 17.8782 66.8563 17.8782C67.2477 17.8782 67.6005 17.9174 67.9088 17.9929C68.2171 18.0713 68.5314 18.18 68.8486 18.3218V13.7255L71.6769 13.2607V27.9218L71.671 27.9188ZM65.2762 23.0901C65.2762 23.9774 65.4718 24.6927 65.8632 25.2329C66.2545 25.7731 66.8385 26.0447 67.6094 26.0447C67.8614 26.0447 68.0956 26.0356 68.312 26.0145C68.5254 25.9964 68.7033 25.9723 68.8427 25.9481V20.715C68.6648 20.6003 68.4335 20.5038 68.1489 20.4253C67.8643 20.3468 67.5767 20.3106 67.2862 20.3106C65.9462 20.3106 65.2762 21.2371 65.2762 23.0932V23.0901Z" fill="white"/>
<path d="M82.7529 27.9188C82.5009 27.9973 82.2103 28.0697 81.8812 28.1422C81.5522 28.2146 81.2083 28.2749 80.8466 28.3262C80.4849 28.3776 80.1202 28.4198 79.7467 28.453C79.3731 28.4862 79.0174 28.5013 78.6735 28.5013C77.8523 28.5013 77.117 28.3776 76.4737 28.1331C75.8274 27.8886 75.2849 27.5386 74.8431 27.0798C74.4014 26.6241 74.0634 26.0688 73.8292 25.42C73.595 24.7711 73.4794 24.0378 73.4794 23.229C73.4794 22.4202 73.5802 21.6627 73.7818 20.9987C73.9834 20.3348 74.2739 19.7734 74.6563 19.3087C75.0358 18.8439 75.5013 18.4908 76.0497 18.2464C76.6012 18.0019 77.2297 17.8782 77.9382 17.8782C78.3296 17.8782 78.6824 17.9174 78.9907 17.9929C79.299 18.0713 79.6133 18.18 79.9305 18.3218V13.7255L82.7588 13.2607V27.9218L82.7529 27.9188ZM76.3581 23.0901C76.3581 23.9774 76.5537 24.6927 76.9451 25.2329C77.3364 25.7731 77.9204 26.0447 78.6913 26.0447C78.9433 26.0447 79.1775 26.0356 79.3939 26.0145C79.6073 25.9964 79.7852 25.9723 79.9246 25.9481V20.715C79.7467 20.6003 79.5154 20.5038 79.2308 20.4253C78.9462 20.3468 78.6586 20.3106 78.3681 20.3106C77.0281 20.3106 76.3581 21.2371 76.3581 23.0932V23.0901Z" fill="white"/>
<path d="M89.0142 28.441C88.193 28.4289 87.5259 28.3384 87.013 28.1694C86.5001 28.0034 86.0969 27.768 85.7975 27.4632C85.4981 27.1584 85.2965 26.7932 85.1898 26.3617C85.083 25.9301 85.0297 25.4442 85.0297 24.904V13.7226L87.858 13.2578V24.3246C87.858 24.5811 87.8758 24.8135 87.9143 25.0187C87.9528 25.2239 88.024 25.3989 88.1337 25.5408C88.2404 25.6826 88.3946 25.7973 88.5991 25.8878C88.8007 25.9784 89.0735 26.0357 89.4144 26.0629L89.0171 28.438L89.0142 28.441Z" fill="white"/>
<path d="M90.5499 23.247C90.5499 22.3447 90.6863 21.557 90.9591 20.881C91.2318 20.205 91.5876 19.6406 92.0323 19.1909C92.477 18.7413 92.9839 18.4002 93.5591 18.1679C94.1342 17.9355 94.7271 17.8208 95.3319 17.8208C96.7491 17.8208 97.8667 18.2614 98.6909 19.1427C99.5121 20.0239 99.9242 21.3216 99.9242 23.0358C99.9242 23.2018 99.9183 23.3859 99.9064 23.585C99.8946 23.7842 99.8797 23.9623 99.8679 24.1162H93.4553C93.5176 24.7077 93.7903 25.1785 94.2706 25.5256C94.7509 25.8726 95.3972 26.0477 96.2065 26.0477C96.7253 26.0477 97.2323 25.9994 97.7333 25.9028C98.2314 25.8062 98.6405 25.6885 98.9577 25.5467L99.3372 27.8826C99.186 27.961 98.9814 28.0365 98.7295 28.115C98.4775 28.1934 98.1958 28.2598 97.8845 28.3172C97.5732 28.3745 97.2412 28.4228 96.8884 28.462C96.5356 28.5013 96.1798 28.5194 95.827 28.5194C94.9288 28.5194 94.149 28.3836 93.4849 28.115C92.8209 27.8433 92.2694 27.4752 91.8336 27.0044C91.3978 26.5336 91.0747 25.9783 90.8671 25.3324C90.6596 24.6896 90.5529 23.9925 90.5529 23.247H90.5499ZM97.1908 22.1455C97.1789 21.901 97.1374 21.6626 97.0663 21.4302C96.9951 21.1979 96.8884 20.9926 96.7431 20.8116C96.5979 20.6305 96.414 20.4826 96.1917 20.3679C95.9693 20.2533 95.6966 20.1929 95.3675 20.1929C95.0384 20.1929 94.7805 20.2472 94.5522 20.3559C94.324 20.4645 94.1342 20.6094 93.983 20.7904C93.8318 20.9715 93.7132 21.1798 93.6332 21.4182C93.5502 21.6566 93.4909 21.898 93.4523 22.1425H97.1908V22.1455Z" fill="white"/>
<path d="M108.187 22.4142C107.935 23.392 107.665 24.3638 107.38 25.3295C107.096 26.2953 106.796 27.2671 106.479 28.2449H104.279C104.051 27.7047 103.805 27.0618 103.538 26.3134C103.271 25.568 102.996 24.7531 102.711 23.8689C102.426 22.9876 102.133 22.0521 101.836 21.0682C101.54 20.0844 101.249 19.0885 100.971 18.0835H103.95C104.051 18.5483 104.164 19.0523 104.285 19.5985C104.407 20.1447 104.534 20.7091 104.668 21.2885C104.801 21.868 104.94 22.4504 105.089 23.0359C105.234 23.6214 105.385 24.1858 105.536 24.726C105.699 24.1586 105.862 23.5791 106.02 22.9876C106.177 22.3961 106.328 21.8137 106.476 21.2403C106.621 20.6668 106.761 20.1146 106.894 19.5804C107.028 19.0462 107.143 18.5483 107.244 18.0835H109.293C109.393 18.5483 109.509 19.0462 109.633 19.5804C109.761 20.1146 109.891 20.6699 110.031 21.2403C110.17 21.8137 110.315 22.3961 110.467 22.9876C110.618 23.5791 110.775 24.1586 110.941 24.726C111.095 24.1858 111.246 23.6214 111.397 23.0359C111.549 22.4504 111.694 21.868 111.827 21.2885C111.961 20.7091 112.088 20.1447 112.21 19.5985C112.331 19.0523 112.441 18.5452 112.545 18.0835H115.486C115.207 19.0885 114.917 20.0814 114.62 21.0682C114.321 22.0521 114.03 22.9876 113.745 23.8689C113.461 24.7501 113.182 25.5649 112.909 26.3134C112.637 27.0618 112.388 27.7047 112.156 28.2449H109.957C109.639 27.2671 109.331 26.2953 109.026 25.3295C108.72 24.3638 108.445 23.392 108.19 22.4142H108.187Z" fill="white"/>
<path d="M120.377 17.8179C121.213 17.8179 121.907 17.9144 122.465 18.1076C123.022 18.3007 123.467 18.5784 123.802 18.9375C124.137 19.2997 124.374 19.7373 124.513 20.2503C124.652 20.7664 124.721 21.3398 124.721 21.9705V27.9581C124.315 28.0487 123.754 28.1543 123.031 28.278C122.31 28.4018 121.436 28.4621 120.413 28.4621C119.767 28.4621 119.183 28.4048 118.658 28.2871C118.133 28.1724 117.68 27.9823 117.3 27.7167C116.921 27.4541 116.63 27.1071 116.428 26.6845C116.227 26.259 116.126 25.7369 116.126 25.1213C116.126 24.5056 116.242 24.0258 116.476 23.6153C116.71 23.2019 117.024 22.8759 117.416 22.6315C117.807 22.387 118.258 22.209 118.762 22.1003C119.269 21.9917 119.793 21.9373 120.336 21.9373C120.704 21.9373 121.03 21.9524 121.311 21.9856C121.596 22.0188 121.827 22.0611 122.005 22.1124V21.8408C122.005 21.3519 121.86 20.9595 121.569 20.6638C121.279 20.368 120.772 20.2201 120.051 20.2201C119.571 20.2201 119.097 20.2564 118.628 20.3258C118.16 20.3982 117.757 20.4978 117.413 20.6245L117.054 18.3068C117.217 18.2555 117.425 18.2011 117.671 18.1438C117.917 18.0865 118.187 18.0352 118.477 17.9899C118.768 17.9446 119.076 17.9054 119.396 17.8752C119.719 17.842 120.045 17.8269 120.374 17.8269L120.377 17.8179ZM120.606 26.2379C120.884 26.2379 121.148 26.2319 121.403 26.2198C121.655 26.2077 121.86 26.1866 122.011 26.1624V23.9805C121.898 23.9563 121.726 23.9292 121.498 23.902C121.27 23.8779 121.062 23.8628 120.873 23.8628C120.606 23.8628 120.357 23.8779 120.122 23.9111C119.888 23.9443 119.684 24.0046 119.506 24.0952C119.328 24.1857 119.189 24.3064 119.088 24.4634C118.987 24.6173 118.937 24.8104 118.937 25.0428C118.937 25.4925 119.085 25.8063 119.381 25.9784C119.678 26.1534 120.087 26.2379 120.606 26.2379Z" fill="white"/>
<path d="M133.298 20.6396C133.046 20.5762 132.746 20.5068 132.405 20.4374C132.064 20.368 131.697 20.3318 131.305 20.3318C131.127 20.3318 130.917 20.3468 130.671 20.38C130.425 20.4132 130.238 20.4464 130.111 20.4857V28.2508H127.282V18.6327C127.789 18.4516 128.385 18.2826 129.076 18.1196C129.767 17.9597 130.534 17.8782 131.382 17.8782C131.534 17.8782 131.717 17.8872 131.934 17.9084C132.147 17.9265 132.364 17.9536 132.58 17.9868C132.794 18.02 133.01 18.0592 133.226 18.1015C133.44 18.1468 133.624 18.2011 133.778 18.2645L133.303 20.6396H133.298Z" fill="white"/>
<path d="M134.626 23.247C134.626 22.3447 134.762 21.557 135.035 20.881C135.308 20.205 135.663 19.6406 136.108 19.1909C136.553 18.7413 137.06 18.4002 137.635 18.1679C138.21 17.9355 138.803 17.8208 139.408 17.8208C140.825 17.8208 141.943 18.2614 142.767 19.1427C143.588 20.0239 144 21.3216 144 23.0358C144 23.2018 143.994 23.3859 143.982 23.585C143.97 23.7842 143.956 23.9623 143.944 24.1162H137.531C137.593 24.7077 137.866 25.1785 138.346 25.5256C138.827 25.8726 139.473 26.0477 140.282 26.0477C140.801 26.0477 141.308 25.9994 141.809 25.9028C142.307 25.8062 142.716 25.6885 143.034 25.5467L143.413 27.8826C143.262 27.961 143.057 28.0365 142.805 28.115C142.553 28.1934 142.272 28.2598 141.96 28.3172C141.649 28.3745 141.317 28.4228 140.964 28.462C140.611 28.5013 140.256 28.5194 139.903 28.5194C139.005 28.5194 138.225 28.3836 137.561 28.115C136.897 27.8433 136.345 27.4752 135.909 27.0044C135.474 26.5336 135.15 25.9783 134.943 25.3324C134.735 24.6896 134.629 23.9925 134.629 23.247H134.626ZM141.267 22.1455C141.255 21.901 141.213 21.6626 141.142 21.4302C141.071 21.1979 140.964 20.9926 140.819 20.8116C140.674 20.6305 140.49 20.4826 140.268 20.3679C140.045 20.2533 139.772 20.1929 139.443 20.1929C139.114 20.1929 138.856 20.2472 138.628 20.3559C138.4 20.4645 138.21 20.6094 138.059 20.7904C137.908 20.9715 137.789 21.1798 137.709 21.4182C137.626 21.6566 137.567 21.898 137.528 22.1425H141.267V22.1455Z" fill="white"/>
</svg>
