<?xml version="1.0" encoding="UTF-8"?>
<svg width="40px" height="40px" viewBox="0 0 40 40" version="1.1" xmlns="http://www.w3.org/2000/svg" xmlns:xlink="http://www.w3.org/1999/xlink">
    <title>img_shop_ default_40x40</title>
    <g id="IMG" stroke="none" stroke-width="1" fill="none" fill-rule="evenodd">
        <g id="img/shop_-default/40x40">
            <rect id="Rectangle" fill="#EDEFF4" x="0" y="0" width="40" height="40"></rect>
            <g id="Group-15" transform="translate(10.500000, 11.000000)" stroke="#C6C9D3" stroke-width="1.5">
                <line x1="17.5" y1="7.9432" x2="17.5" y2="16.9432" id="Stroke-1"></line>
                <line x1="1.5" y1="16.9432" x2="1.5" y2="7.9432" id="Stroke-3"></line>
                <line x1="19" y1="16.9432" x2="0" y2="16.9432" id="Stroke-5" stroke-linecap="round"></line>
                <path d="M2.3682,8 L2.3682,8 C0.9422,8 -0.1048,6.66 0.2412,5.276 L1.3712,0.757 C1.4822,0.312 1.8822,0 2.3412,0 L4.5602,0 L4.5602,5.808 C4.5602,7.019 3.5792,8 2.3682,8 Z" id="Stroke-7"></path>
                <path d="M7.3682,8 L6.7522,8 C5.5422,8 4.5602,7.019 4.5602,5.808 L4.5602,0 L9.5602,0 L9.5602,5.808 C9.5602,7.019 8.5792,8 7.3682,8 Z" id="Stroke-9"></path>
                <path d="M12.3682,8 L11.7522,8 C10.5422,8 9.5602,7.019 9.5602,5.808 L9.5602,0 L14.5602,0 L14.5602,5.808 C14.5602,7.019 13.5792,8 12.3682,8 Z" id="Stroke-11"></path>
                <path d="M16.7527,8 L16.7527,8 C15.5417,8 14.5607,7.019 14.5607,5.808 L14.5607,0 L16.7797,0 C17.2387,0 17.6387,0.312 17.7497,0.757 L18.8797,5.276 C19.2257,6.66 18.1787,8 16.7527,8 Z" id="Stroke-13"></path>
            </g>
        </g>
    </g>
</svg>